<svg width="512" height="512" viewBox="0 0 512 512" fill="none" xmlns="http://www.w3.org/2000/svg">
<rect width="512" height="512" fill="white"/>
<path fill-rule="evenodd" clip-rule="evenodd" d="M334 263.8V413.905C334 456.643 298.74 490 256 490C212.192 490 178 455.601 178 413.905V263.8H248.521V413.905C248.521 418.075 251.726 421.202 256 421.202C260.274 421.202 263.479 418.075 263.479 413.905V263.8H334Z" fill="#3455A6"/>
<path fill-rule="evenodd" clip-rule="evenodd" d="M334 98.0949V248.2H262.898V98.0949C262.898 93.9253 259.714 90.7982 255.469 90.7982C252.286 91.8406 249.102 94.9677 249.102 98.0949V248.2H178V98.0949C178 56.3991 213.02 22 256.531 22C300.041 22 334 56.3991 334 98.0949Z" fill="#3455A6"/>
</svg>