<svg xmlns="http://www.w3.org/2000/svg" width="136" height="60" viewBox="0 0 136 60">
  <g fill="#3455A5" transform="translate(0 8)">
    <path d="M15,7.3 L15,21.7 L8.3,21.7 L8.3,7.3 C8.3,6.9 8,6.6 7.6,6.6 C7.3,6.7 7,7 7,7.3 L7,21.7 L0.3,21.7 L0.3,7.3 C0.3,3.3 3.6,0 7.7,0 C11.8,0 15,3.3 15,7.3 Z"/>
    <g transform="translate(0 2)">
      <path d="M134 18.5C134.8 19.3 133.6 20.7 132.7 19.8L132.6 19.7C132 19.2 131 19.1 130.2 19.1 128.2 19.1 127.3 19.9 127.3 20.9 127.3 22 128.5 22.4 129.5 22.8 131.9 23.5 135.2 23.9 135.2 27.3 135.2 30.3 132.6 31.6 130 31.6 128.4 31.6 126.5 31.1 125.3 30.2 124.3 29.5 125.4 28 126.4 28.7 127.2 29.3 128.7 29.7 130 29.7 132.1 29.7 133.3 28.7 133.3 27.2 133.3 25.9 132.2 25.5 131.1 25.1 128.8 24.4 125.4 24.1 125.4 20.9 125.4 18.3 127.9 17.2 130.1 17.2 131.2 17.3 133.1 17.5 134 18.5zM123.8 30C124 30.5 123.7 31.3 122.9 31.3L114.9 31.3C114.4 31.3 114 30.9 114 30.4L114 18.5C114 18 114.4 17.6 114.9 17.6L122.9 17.6C123.9 17.6 124.1 18.8 123.5 19.3 123.4 19.4 123.2 19.5 122.9 19.5L115.8 19.5 115.8 23 120.9 23C122.1 23 122.1 24.8 120.9 24.8L115.8 24.8 115.8 29.3 122.9 29.3C123.4 29.4 123.7 29.7 123.8 30zM111.7 18.5L111.7 30.4C111.7 31.6 109.8 31.6 109.8 30.4L109.8 18.5C109.9 17.3 111.7 17.3 111.7 18.5zM107.4 17.5C108.6 17.5 108.6 19.4 107.4 19.4L104.3 19.4 104.3 30.3C104.3 31.5 102.4 31.5 102.4 30.3L102.4 19.4 99.3 19.4C98.1 19.4 98.1 17.5 99.3 17.5L107.4 17.5zM97.3 18.5L97.3 30.4C97.3 31.6 95.4 31.6 95.4 30.4L95.4 18.5C95.4 17.3 97.3 17.3 97.3 18.5zM92.6 18.5C93.4 19.3 92.2 20.7 91.3 19.8L91.2 19.7C90.6 19.2 89.6 19.1 88.8 19.1 86.8 19.1 85.9 19.9 85.9 20.9 85.9 22 87.1 22.4 88.1 22.8 90.5 23.5 93.8 23.9 93.8 27.3 93.8 30.3 91.2 31.6 88.6 31.6 87 31.6 85.1 31.1 83.9 30.2 82.9 29.5 84 28 85 28.7 85.8 29.3 87.3 29.7 88.6 29.7 90.7 29.7 91.9 28.7 91.9 27.2 91.9 25.9 90.8 25.5 89.7 25.1 87.4 24.4 84 24.1 84 20.9 84 18.3 86.5 17.2 88.7 17.2 89.8 17.3 91.7 17.5 92.6 18.5zM69.7 17.5C70.3 17.5 70.6 18 70.6 18.4 70.6 18.9 70.3 19.3 69.7 19.3L62.6 19.3 62.6 23 67.7 23C68.9 23 68.9 24.8 67.7 24.8L62.6 24.8 62.6 29.3 69.7 29.3C70.3 29.3 70.6 29.8 70.6 30.2 70.6 30.7 70.3 31.1 69.7 31.1L61.7 31.1C61.2 31.1 60.8 30.7 60.8 30.2L60.8 18.5C60.8 18 61.2 17.6 61.7 17.6L69.7 17.6 69.7 17.5zM66.1 1.2L66.1 13C66.1 13.9 64.9 14.3 64.4 13.5L58.1 4.2 58.1 13C58.1 14.2 56.2 14.2 56.2 13L56.2 1.2C56.2.3 57.4-.1 57.9.7L64.2 10.1 64.2 1.2C64.2-.1 66.1-.1 66.1 1.2zM66 40.2C66.1 40.5 66 40.7 65.8 40.7 65.6 40.8 65.4 40.7 65.3 40.5L64.8 39.4 62 39.4 61.5 40.5C61.3 41 60.5 40.7 60.7 40.2L62.9 34.9C63 34.6 63.5 34.5 63.7 34.9L66 40.2zM64.4 38.5L63.4 36.1 62.4 38.5 64.4 38.5zM59.8 35L59.8 40.3C59.8 40.8 59 40.8 59 40.3L59 35C58.9 34.5 59.8 34.5 59.8 35zM57.7 18.2C58.2 16.7 59.8 17.9 59.5 18.8L55.5 30.6C55.2 31.5 54 31.5 53.8 30.6L49.8 18.8C49.4 17.6 51.2 17 51.6 18.2L54.7 27.4 57.7 18.2zM57.5 39.9C58.1 39.9 58.1 40.7 57.5 40.7L54.8 40.7C54.6 40.7 54.4 40.5 54.4 40.3L54.4 35C54.4 34.5 55.2 34.5 55.2 35L55.2 39.9 57.5 39.9zM53.8.2C54.4.2 54.7.7 54.7 1.1 54.7 1.6 54.4 2 53.8 2L46.7 2 46.7 5.6 51.8 5.6C53 5.6 53 7.5 51.8 7.5L46.7 7.5 46.7 12 53.8 12C54.4 12 54.7 12.5 54.7 12.9 54.7 13.4 54.4 13.8 53.8 13.8L45.8 13.8C45.3 13.8 44.9 13.4 44.9 12.9L44.9 1.2C44.9.7 45.3.3 45.8.3L53.8.3 53.8.2zM53.6 40.2C53.7 40.5 53.6 40.7 53.4 40.7 53.2 40.8 53 40.7 52.9 40.5L52.4 39.4 49.7 39.4 49.2 40.5C49 41 48.2 40.7 48.4 40.2L50.6 34.9C50.7 34.6 51.2 34.5 51.4 34.9L53.6 40.2zM52 38.5L51 36.1 50 38.5 52 38.5zM47.8 18.5L47.8 30.4C47.8 31.6 45.9 31.6 45.9 30.4L45.9 18.5C45.9 17.3 47.8 17.3 47.8 18.5zM43.6 18.5L43.6 30.4C43.6 31.3 42.4 31.7 41.9 30.9L35.6 21.6 35.6 30.4C35.6 31.6 33.7 31.6 33.7 30.4L33.7 18.5C33.7 17.6 34.9 17.2 35.4 18L41.7 27.3 41.7 18.5C41.8 17.3 43.6 17.3 43.6 18.5zM43.4 4.3C43.4 6.6 41.6 8.4 39.3 8.4L35.3 8.4 35.3 13C35.3 14.2 33.4 14.2 33.4 13L33.4 1.2C33.4.7 33.8.3 34.3.3L39.2.3C41.6.2 43.4 2 43.4 4.3zM41.6 4.3C41.5 3.1 40.7 2.1 39.4 2.1L35.4 2.1 35.4 6.5 39.4 6.5C40.6 6.5 41.5 5.5 41.6 4.3zM41.9 34.6C42.5 34.6 42.5 35.4 41.9 35.4L40.5 35.4 40.5 40.3C40.5 40.8 39.7 40.8 39.7 40.3L39.7 35.4 38.3 35.4C37.7 35.4 37.7 34.6 38.3 34.6L41.9 34.6zM36.9 35.1C37.2 35.5 36.7 36.1 36.3 35.7 36 35.5 35.6 35.4 35.2 35.4 34.3 35.4 33.9 35.8 33.9 36.2 33.9 36.7 34.4 36.9 34.9 37 36 37.3 37.4 37.5 37.4 39 37.4 40.3 36.2 40.9 35.1 40.9 34.4 40.9 33.5 40.7 33 40.3 32.6 40 33 39.3 33.5 39.6 33.9 39.9 34.5 40.1 35.1 40.1 36 40.1 36.6 39.6 36.6 39 36.6 38.4 36.1 38.2 35.6 38.1 34.6 37.8 33.1 37.6 33.1 36.2 33.1 35 34.2 34.6 35.2 34.6 35.6 34.5 36.5 34.6 36.9 35.1zM32.1 35L32.1 38.7C32.1 39.9 31.1 40.9 29.8 40.9 28.6 40.9 27.6 39.9 27.6 38.7L27.6 35C27.6 34.5 28.4 34.5 28.4 35L28.4 38.7C28.4 39.5 29 40.1 29.8 40.1 30.6 40.1 31.2 39.5 31.2 38.7L31.2 35C31.2 34.5 32.1 34.5 32.1 35zM31.8 18.5L31.8 26.7C31.8 29.4 29.6 31.6 26.9 31.6 24.2 31.6 22 29.4 22 26.7L22 18.5C22 17.3 23.8 17.3 23.8 18.5L23.8 26.7C23.8 28.4 25.2 29.8 26.9 29.8 28.6 29.8 30 28.4 30 26.7L30 18.5C29.9 17.3 31.8 17.3 31.8 18.5zM31.8 4.6L31.8 9.6C31.8 12.3 29.6 14.1 26.9 14.1 24.2 14.1 22 12.3 22 9.6L22 4.6C22 2.1 23.8.1 26.9.1 29.9.1 31.8 2.1 31.8 4.6zM29.9 9.6C30 8.1 30 6.4 29.9 4.6 29.8 2.9 28.5 2 26.8 2 24.8 2 23.8 3.1 23.7 4.6 23.6 6.1 23.6 7.8 23.7 9.6 23.8 11.3 25.1 12.2 26.8 12.2 28.8 12.2 29.9 11.1 29.9 9.6zM27 40.2C27.1 40.5 27 40.7 26.8 40.7 26.6 40.8 26.4 40.7 26.3 40.5L25.8 39.4 23.1 39.4 22.6 40.5C22.4 41 21.6 40.7 21.8 40.2L24 34.9C24.1 34.6 24.6 34.5 24.8 34.9L27 40.2zM25.4 38.5L24.4 36.1 23.4 38.5 25.4 38.5zM15 21.2L15 35.6C15 39.7 11.7 42.9 7.7 42.9 3.6 42.9.4 39.6.4 35.6L.4 21.2 7 21.2 7 35.6C7 36 7.3 36.3 7.7 36.3 8.1 36.3 8.4 36 8.4 35.6L8.4 21.2 15 21.2zM82 29.8L79 25.6C80.8 25.2 82.2 23.5 82.2 21.6 82.2 19.4 80.4 17.5 78.1 17.5L73.2 17.5C72.7 17.5 72.3 17.9 72.3 18.4L72.3 30.3C72.3 31.5 74.2 31.5 74.2 30.3L74.2 25.7 76.8 25.7 80.5 30.9C81.2 31.9 82.7 30.8 82 29.8zM74.1 23.8L74.1 19.4 78.1 19.4C79.4 19.4 80.2 20.4 80.3 21.6 80.2 22.8 79.4 23.8 78.1 23.8 78.1 23.8 74.1 23.8 74.1 23.8zM47.5 40.1L46.1 38.2C46.9 38 47.6 37.3 47.6 36.4 47.6 35.4 46.8 34.6 45.7 34.6L43.5 34.6C43.3 34.6 43.1 34.8 43.1 35L43.1 40.3C43.1 40.8 43.9 40.8 43.9 40.3L43.9 38.2 45.1 38.2 46.8 40.5C47.1 41 47.8 40.5 47.5 40.1zM43.9 37.4L43.9 35.4 45.7 35.4C46.3 35.4 46.7 35.9 46.7 36.4 46.7 36.9 46.3 37.4 45.7 37.4L43.9 37.4z"/>
    </g>
  </g>
</svg>
